<svg width="205" height="51" viewBox="0 0 205 51" fill="none" xmlns="http://www.w3.org/2000/svg">
<path d="M40.3927 48H67.1581C68.0082 48.0001 68.8434 47.7783 69.5796 47.357C70.3158 46.9357 70.9271 46.3297 71.352 45.5999C71.7769 44.8701 72.0004 44.0423 72 43.1998C71.9996 42.3572 71.7754 41.5296 71.3499 40.8002L53.375 9.94308C52.9501 9.21348 52.3389 8.60759 51.6029 8.18634C50.8668 7.76508 50.0318 7.5433 49.1819 7.5433C48.3319 7.5433 47.4969 7.76508 46.7609 8.18634C46.0248 8.60759 45.4136 9.21348 44.9888 9.94308L40.3927 17.8383L31.4065 2.39943C30.9813 1.66988 30.3698 1.06409 29.6336 0.642907C28.8973 0.221728 28.0622 0 27.2121 0C26.362 0 25.5269 0.221728 24.7906 0.642907C24.0544 1.06409 23.4429 1.66988 23.0177 2.39943L0.650119 40.8002C0.224594 41.5296 0.000370348 42.3572 4.58382e-07 43.1998C-0.000369431 44.0423 0.223128 44.8701 0.648012 45.5999C1.0729 46.3297 1.68419 46.9357 2.4204 47.357C3.15661 47.7783 3.99178 48.0001 4.84192 48H21.643C28.2998 48 33.2089 45.102 36.5869 39.4481L44.7879 25.3716L49.1806 17.8383L62.3637 40.4667H44.7879L40.3927 48ZM21.3691 40.4589L9.6441 40.4563L27.2199 10.2869L35.9896 25.3716L30.1179 35.454C27.8746 39.1224 25.3262 40.4589 21.3691 40.4589Z" fill="#00DC82"/>
<path d="M91.8586 47.548V29.5819C91.8586 24.4407 91.3347 19.2994 91.3347 19.2994C91.3347 19.2994 93.3256 23.9887 95.8403 28.3955L106.58 47.548H115.015V8H107.104V25.9661C107.104 31.1073 107.628 36.3051 107.628 36.3051C107.628 36.3051 105.637 31.5593 103.175 27.1525L92.3825 8H84V47.548H91.8586Z" fill="white"/>
<path d="M139.939 19.0734V34.6667C139.939 38.2825 137.686 40.9944 134.49 40.9944C131.504 40.9944 129.409 38.5085 129.409 35.0621V19.0734H122.126V36.8136C122.126 43.3107 126.003 48 131.923 48C135.538 48 138.472 46.3051 139.939 43.5932V47.548H147.274V19.0734H139.939Z" fill="white"/>
<path d="M168.604 32.7458L177.458 19.0734H169.442L164.622 26.5876L159.802 19.0734H151.838L160.692 32.6893L151.157 47.548H158.964L164.674 38.791L170.332 47.548H178.086L168.604 32.7458Z" fill="white"/>
<path d="M185.645 19.0734H180.563V25.6271H185.645V37.209C185.645 43.8192 189.574 47.548 195.652 47.548H200V40.9379H196.647C194.289 40.9379 192.927 39.6384 192.927 36.8701V25.6271H200V19.0734H192.927V10.6554H185.645V19.0734Z" fill="white"/>
</svg>
